<svg id="Capa_1" data-name="Capa 1" xmlns="http://www.w3.org/2000/svg" viewBox="0 0 298.46 554.63"><defs><style>.cls-1{fill:#e53e3e;}</style></defs><title>logo-web</title><path class="cls-1" d="M427.25,517.2c-3.85-3.16-7-3.16-10.51-9.82s-5.95-7.69-6.65-16.45-3.86-15.42-7-27-10.86-25.9-16.47-31.16S374.72,417,374.72,417a8.27,8.27,0,0,0-.35-6.65c-1.76-3.51-1.4-11.21-2.8-15.06s-5.25-19.95-7.36-24.51-7-45.54-7-45.54c-1.75-23.11-16.46-33.61-16.46-33.61-23.47-36.08-6.65-67.59-6.65-67.59,4.2-11.91-.71-39.93-.71-39.93a10.89,10.89,0,0,0,3.85-7,19.44,19.44,0,0,1,5.14,7,17.9,17.9,0,0,1-2,2.51,9.5,9.5,0,0,0,2.42-1.26,9.37,9.37,0,0,1,.38,4.41,12.79,12.79,0,0,0,.71-5.4c3.1-3.39,2.26-8.89.33-12.46-2.44-4.55,1.41-12.25,3.16-18.56s-3.5-15.77-3.5-22.07c0-3.76-3.11-9.87-6.2-14.5,5.64-1.46,26.51,7.15,26.51,7.15,9.81-5.26,28.72,4.55,28.72,4.55,2.1-4.55,7-.34,7-.34-1.75-3.86,8.76,2.09,8.76,2.09C363.86,46.16,288.56,33.55,288.56,33.55a4.78,4.78,0,0,0-2.1-4.9C292.76,5.19,288.56,9,288.56,9c-2.44.35-5.6,19.61-5.6,19.61-1.75,1.05-2.8,3.85-2.8,3.85C179,21,136.22,82.94,136.22,82.94c13-4.56,16.11,3.15,16.11,3.15,23.82-1.76,31.88,7,31.88,7,7-2.8,32.56,4.55,32.56,4.55C209.42,105,226.23,140,226.23,140c-3.85-1.4-7.71,9.81-7.71,9.81s-2.1,1.41-4.55,3.15a33.47,33.47,0,0,1-12.6,5.26c-6.31,1.41-8.06,8.41-12.27,14S187,184.5,186,195s-1.75,35.72-3.86,41.67-3.5,50.43-3.5,50.43a11,11,0,0,0,3.85,12.62c-13.65,19.61-3.15,38.52-1.4,48s4.91,37.12,5.6,56.73,5.61,57.43,5.61,57.43l-4.21,10.86,3.86,4.55-2.1,4.21c-5.6,9.46,8.05,20.31,8.05,20.31,3.51,1.4,2.8,22.41,2.8,22.41.71,10.51-2.1,16.12-2.1,16.12-.35,11.2,11.91,9.45,11.91,9.45-3.86,15.76,21.36,10.51,21.36,10.51l32.22-3.16c6.65-4.2,2.46-9.8-4.55-10.5s-10.16,3.5-22.77-7.71-7.35-8.06-9.45-13.31,0-1.4,0-1.4-3.86-23.81-2.46-27,1.75-1.41,3.51-3.5,1-2.8,1.75-6.65-2.45-4.57-2.1-8.41,2.8-6.31,7.35-17.16,3.86-33.28,6.31-42.38.34-7,2.44-16.46,3.16-37.47,3.86-43.78,0-4.19.7-10.16,1.05-3.85,2.11-8.05.34-16.47-2.11-22.07.35-8.4.35-8.4c3.15-2.45,3.15-8.4,3.15-8.4,3.15-3.5,8.06-31.53,8.06-31.53.69-4.55,8.4-1.39,7.35,2.11s2.1,4.55.71,11.91,1,17.86-1.41,24.51,1.75,23.12-1,39.23-1.76,88.25-1.76,88.25c-2.1,4.9,2.44,5.25,2.44,5.25-4.54,3.15,17.18,1.05,17.18,1.05-2.81,1.4.34,2.81.34,2.81,3.15-2.81,7,3.15,7,3.15-.36,3.16,16.46.34,16.46.34-3.16-2.79,7.35-3.49,7.35-3.49,2.8.35,3.85,11.2,3.85,11.2-2.45,5.95,5.95,44.12,6.31,52.53s2.1,16.11-.36,22.06-19.26,13.31-19.26,13.31c-12.95,2.46-8.05,8.41-8.05,8.41-7,5.61,10.16,8.4,10.16,8.4,10.15-1.05,30.46,2.11,30.46,2.11,12.27-1.41,13.31-9.12,13.31-9.12,0-8.75-2.1-5.6-4.2-17.14s2.8-49.75,2.8-49.75c4.89-28.71-6.3-47.61-6.3-47.61l2.8-1.07-.7-2.45,3.15.7-.35-2.1c4.9,1.05,13,13,13,13,.35,4.91,32.57,52.88,32.57,52.88,6.3,11.56,8.4,37.83,8.4,42.37s-4.55,4.57-4.55,4.57c-10.86,1.39-2.8,8.75-2.8,8.75,5.6,2.46,20.66.7,23.82-1.41s1-5.6,3.14-9.45,3.51-8.76,6.31-10.85,5.6-7,6.3-9.81S431.1,520.35,427.25,517.2ZM343.62,181.81a42.05,42.05,0,0,0-3.57-10.63C345.32,174.39,345,178.6,343.62,181.81Zm-85.85-25.18-1.78,8.8-3.14-3C252.48,161.52,255.13,158.92,257.77,156.63Zm5.58,89.49c.7-2.79-1.75-10.49-1.75-10.49,1.61,1,3.1,2,4.43,2.93a49.39,49.39,0,0,0,3.62,8.62Zm28.37-59.88c-7.7,6.31-17.86,25.22-17.86,25.22a17.82,17.82,0,0,0-6.63,5.67l-.72-1.11-7.71-15.77c2.45-5.25-1.75-14.71-1.75-14.71l3.2-16-.21-.22.73-2.92.13-.09-.65,3.23.3.27,1.57-8.82,2.54-10.17a36.41,36.41,0,0,1,5.7-2.72,21.24,21.24,0,0,0,6.56-.77c3.68,5,12,7.43,12,7.43l3.51,8.75C298,171.89,291.72,186.24,291.72,186.24Zm-2.45-66.54a17,17,0,0,0-4.35,1.8c-.91-3.42-5.81-7.75-5.81-7.75a14.07,14.07,0,0,0-.35-6.3c1.6-1.07,10.46,0,20.82,1.84C293.68,112.8,289.27,119.7,289.27,119.7Z" transform="translate(-136.22 -8.8)"/></svg>